<svg xmlns="http://www.w3.org/2000/svg" viewBox="0 0 64 80" x="0px" y="0px"><path d="M61,34H52V30h3a1,1,0,0,0,0-2H53.816A3,3,0,0,0,52,26.184V24h3a1,1,0,0,0,0-2H53.816A3,3,0,0,0,52,20.184V18h3a1,1,0,0,0,0-2H53.816A3,3,0,0,0,52,14.184V12a1,1,0,0,0,1-1V10a1,1,0,0,0,0-2H52V7.48l4.625-3.7a1,1,0,1,0-1.25-1.562l-5,4c-.014.012-.02.029-.034.042a.973.973,0,0,0-.134.159,1.037,1.037,0,0,0-.1.15,1.011,1.011,0,0,0-.054.172.968.968,0,0,0-.041.205c0,.018-.011.034-.011.053V8H49a1,1,0,0,0,0,2v1a1,1,0,0,0,1,1v2.184A3,3,0,0,0,48.184,16H47a1,1,0,0,0,0,2h3v2.184A3,3,0,0,0,48.184,22H47a1,1,0,0,0,0,2h3v2.184A3,3,0,0,0,48.184,28H47a1,1,0,0,0,0,2h3v2H33V30h3a1,1,0,0,0,0-2H34.816A3,3,0,0,0,33,26.184V24h3a1,1,0,0,0,0-2H34.816A3,3,0,0,0,33,20.184V18h3a1,1,0,0,0,0-2H34.816A3,3,0,0,0,33,14.184V12a1,1,0,0,0,1-1V10a1,1,0,0,0,0-2H33V3a1,1,0,0,0-2,0V8H30a1,1,0,0,0,0,2v1a1,1,0,0,0,1,1v2.184A3,3,0,0,0,29.184,16H28a1,1,0,0,0,0,2h3v2.184A3,3,0,0,0,29.184,22H28a1,1,0,0,0,0,2h3v2.184A3,3,0,0,0,29.184,28H28a1,1,0,0,0,0,2h3v2H14V30h3a1,1,0,0,0,0-2H15.816A3,3,0,0,0,14,26.184V24h3a1,1,0,0,0,0-2H15.816A3,3,0,0,0,14,20.184V18h3a1,1,0,0,0,0-2H15.816A3,3,0,0,0,14,14.184V12a1,1,0,0,0,1-1V10a1,1,0,0,0,0-2H14V7a1.01,1.01,0,0,0-.077-.382,1,1,0,0,0-.216-.325l-4-4A1,1,0,0,0,8.293,3.707L12,7.414V8H11a1,1,0,0,0,0,2v1a1,1,0,0,0,1,1v2.184A3,3,0,0,0,10.184,16H9a1,1,0,0,0,0,2h3v2.184A3,3,0,0,0,10.184,22H9a1,1,0,0,0,0,2h3v2.184A3,3,0,0,0,10.184,28H9a1,1,0,0,0,0,2h3v4H3a1,1,0,0,0-1,1V57a1,1,0,0,0,1,1h7v2H3a1,1,0,0,0,0,2H61a1,1,0,0,0,0-2H54V58h7a1,1,0,0,0,1-1V35A1,1,0,0,0,61,34Zm-1,2V46H58V36ZM14,35V34h6V46H14ZM33,46H31V42h2Zm-3,2H50v7H14V48H30ZM48,58v2H16V58Zm2-23V46H44V34h6Zm-8-1V46H35V41a1,1,0,0,0-1-1H30a1,1,0,0,0-1,1v5H22V34ZM4,36H6V46H4ZM4,48H7a1,1,0,0,0,1-1V36h4V56H4Zm8,12V58h2v2Zm40,0H50V58h2Zm1-4H52V36h4V47a1,1,0,0,0,1,1h3v8Z"/><path d="M16,52a1,1,0,0,0,1,1H41a1,1,0,0,0,0-2H17A1,1,0,0,0,16,52Z"/><path d="M45,53h2a1,1,0,0,0,0-2H45a1,1,0,0,0,0,2Z"/><circle cx="8" cy="52" r="2"/><circle cx="56" cy="52" r="2"/><circle cx="25.005" cy="36.995" r="1.005"/><circle cx="29.005" cy="36.995" r="1.005"/><circle cx="39.005" cy="36.995" r="1.005"/><circle cx="35.005" cy="36.995" r="1.005"/><text x="0" y="79" fill="#000000" font-size="5px" font-weight="bold" font-family="'Helvetica Neue', Helvetica, Arial-Unicode, Arial, Sans-serif">Created by ing.mixa</text><text x="0" y="84" fill="#000000" font-size="5px" font-weight="bold" font-family="'Helvetica Neue', Helvetica, Arial-Unicode, Arial, Sans-serif">from the Noun Project</text></svg>