<svg xmlns="http://www.w3.org/2000/svg" xmlns:xlink="http://www.w3.org/1999/xlink" version="1.1" x="0px" y="0px" viewBox="0 0 90 112.5" enable-background="new 0 0 90 90" xml:space="preserve"><path d="M51.338,88.778l-1.135-54.112l17.682,32.841c0.574-0.134,0.218-2.53,0.242-3.615c-0.102-0.535-1.531-3.469-14.441-31.31  l-1.832,0.244l3.208-2.524c0.338-0.346,0.472-0.763,0.377-1.171c-0.102-0.425-0.417-0.7-0.668-0.849l-2.791-0.236l1.51-0.503  L63.938,1.645C63.875,1.362,63.812,1.15,63.757,1c-0.464,0.259-0.475,0.245-0.585,0.371c-0.582,1.077-2.544,4.087-4.337,7.192  c-2.972,5.158-6.718,12.245-7.049,13.149c-0.425,1.156-1.836,4.698-2.19,6.129l-0.102,0.409l-0.653,0.322l-0.456,0.024  l-32.327-6.211c0,0-0.225,1.487,2.906,2.312c3.132,0.824,26.472,6.117,26.472,6.117l-1.464,0.51l-2.806,1.377  c-0.259,0.417-0.684,1.234-0.519,2.028c0.283,1.462,1.116,1.683,1.588,1.683c0.37,0,0.708-0.149,0.92-0.267l1.772-0.693l0.76-0.297  l-0.001,0.94l-0.036,52.685H51.338z"/><text x="0" y="105" fill="#000000" font-size="5px" font-weight="bold" font-family="'Helvetica Neue', Helvetica, Arial-Unicode, Arial, Sans-serif">Created by Callum Taylor</text><text x="0" y="110" fill="#000000" font-size="5px" font-weight="bold" font-family="'Helvetica Neue', Helvetica, Arial-Unicode, Arial, Sans-serif">from the Noun Project</text></svg>