<?xml version="1.0" standalone="no"?>
<!DOCTYPE svg PUBLIC "-//W3C//DTD SVG 20010904//EN"
 "http://www.w3.org/TR/2001/REC-SVG-20010904/DTD/svg10.dtd">
<svg version="1.0" xmlns="http://www.w3.org/2000/svg"
 width="700.000000pt" height="700.000000pt" viewBox="0 0 700.000000 700.000000"
 preserveAspectRatio="xMidYMid meet">
<metadata>
Created by potrace 1.11, written by Peter Selinger 2001-2013
</metadata>
<g transform="translate(0.000000,700.000000) scale(0.100000,-0.100000)"
fill="#000000" stroke="none">
<path d="M5115 6986 c-33 -7 -63 -13 -68 -14 -4 -1 -19 -4 -35 -8 -99 -21
-269 -100 -369 -171 -148 -104 -297 -284 -371 -446 -42 -91 -78 -215 -93 -315
-16 -116 -3 -366 22 -414 5 -9 9 -24 9 -33 0 -17 54 -160 69 -184 10 -16 1
-23 159 117 l71 63 -15 41 c-8 22 -16 50 -18 62 -2 12 -9 40 -14 64 -10 42 -9
238 1 277 3 11 8 34 12 50 70 299 305 535 610 616 114 30 289 30 403 0 334
-88 570 -347 628 -691 7 -46 7 -196 -1 -240 -50 -286 -228 -524 -472 -635
l-53 -24 -1 -108 c-1 -59 -1 -123 -1 -141 0 -18 2 -36 6 -40 13 -13 176 54
270 111 230 139 407 361 487 611 20 62 21 64 39 161 14 72 20 253 9 309 -4 23
-9 57 -12 76 -32 209 -146 426 -308 590 -157 157 -397 281 -609 315 -78 12
-293 13 -355 1z"/>
<path d="M5245 6016 c-16 -7 -55 -35 -86 -62 -59 -52 -123 -108 -254 -220 -44
-38 -96 -83 -115 -100 -19 -17 -105 -91 -190 -165 -265 -228 -595 -513 -600
-519 -3 -3 -68 -59 -145 -125 -77 -66 -142 -122 -145 -125 -3 -3 -104 -91
-225 -195 -121 -104 -222 -191 -225 -194 -3 -4 -34 -31 -70 -61 -36 -30 -67
-57 -70 -60 -3 -3 -68 -59 -145 -125 -77 -66 -156 -134 -175 -151 -19 -17
-109 -95 -200 -174 -91 -78 -178 -154 -195 -169 -16 -14 -77 -67 -135 -116
-58 -50 -110 -94 -116 -100 -14 -13 -115 -100 -179 -155 -52 -44 -85 -73 -295
-256 -138 -121 -156 -151 -137 -226 10 -40 65 -97 95 -99 9 -1 28 -3 42 -4 14
-2 81 -6 150 -10 69 -3 145 -8 170 -9 25 -2 106 -7 180 -10 74 -4 158 -9 185
-11 28 -3 102 -7 165 -11 63 -3 144 -7 180 -9 36 -2 119 -6 185 -10 66 -3 145
-8 175 -10 30 -3 111 -7 180 -11 69 -3 145 -7 170 -9 25 -1 104 -6 175 -10 72
-4 141 -8 155 -8 16 -1 46 -25 90 -71 36 -38 81 -85 100 -106 60 -63 313 -331
355 -375 36 -39 180 -191 390 -414 44 -46 96 -101 115 -122 19 -20 94 -98 165
-174 249 -264 258 -273 297 -283 70 -19 143 20 166 87 9 26 12 634 12 2455 0
2285 -1 2423 -18 2455 -33 67 -113 97 -177 67z m-85 -2503 l0 -2068 -83 85
c-45 47 -147 155 -227 240 -80 84 -158 168 -175 185 -142 150 -301 318 -322
342 -14 15 -87 93 -162 172 -75 79 -163 172 -196 208 -87 95 -93 97 -305 108
-63 3 -142 8 -175 10 -33 2 -114 7 -180 10 -66 3 -149 7 -185 10 -36 3 -112 7
-170 10 -58 3 -134 8 -170 10 -36 2 -114 7 -175 10 -60 4 -137 8 -171 10 -33
2 -119 7 -190 11 -71 3 -140 7 -154 9 -14 1 -41 3 -60 3 l-34 2 31 22 c25 19
107 89 393 338 86 75 158 137 295 255 88 76 185 159 215 185 69 59 524 453
565 489 17 14 62 53 100 86 38 33 81 70 95 82 64 56 78 67 119 101 24 21 53
46 65 57 12 11 48 43 81 70 32 28 63 55 69 60 6 6 76 66 156 135 80 68 147
127 150 130 3 3 50 43 105 90 55 47 102 87 105 90 3 3 55 48 115 100 61 52
112 97 115 100 3 3 39 34 80 69 90 77 191 164 239 208 20 18 37 33 39 33 1 0
2 -930 2 -2067z"/>
<path d="M1490 3845 c-123 -26 -189 -49 -285 -98 -302 -153 -526 -449 -591
-782 -21 -108 -25 -260 -9 -366 14 -92 43 -209 56 -223 5 -6 9 -16 9 -23 0
-12 60 -144 70 -153 3 -3 11 -16 18 -30 49 -95 216 -271 327 -345 60 -40 205
-115 228 -119 7 -1 17 -4 22 -8 15 -9 162 -46 220 -54 63 -10 244 -10 310 -1
398 53 750 335 893 715 l20 52 -31 0 c-18 1 -58 3 -89 5 -184 15 -166 17 -194
-26 -13 -21 -24 -43 -24 -47 0 -24 -135 -183 -206 -242 -86 -72 -243 -146
-349 -166 -189 -34 -348 -18 -506 52 -410 182 -607 652 -447 1064 105 267 333
462 610 518 170 35 380 13 508 -53 38 -20 54 -15 106 33 47 42 85 75 131 114
39 31 40 30 -82 92 -218 109 -478 143 -715 91z"/>
<path d="M5587 2193 c-5 -11 -2 -282 4 -285 2 -2 30 -16 62 -31 180 -85 348
-272 416 -462 35 -101 49 -181 49 -285 0 -307 -162 -584 -430 -733 -72 -41
-190 -82 -263 -93 -103 -16 -288 -8 -349 16 -14 5 -26 8 -26 5 0 -4 -42 12
-120 47 -167 75 -324 235 -405 413 -52 113 -69 194 -70 330 0 146 7 193 45
297 l30 81 -28 27 c-15 15 -60 62 -101 105 l-74 77 -24 -38 c-69 -115 -121
-305 -130 -475 -16 -328 95 -617 325 -849 148 -150 346 -258 557 -306 86 -20
318 -26 409 -11 536 87 937 554 940 1092 0 199 -34 347 -122 518 -130 255
-361 459 -621 548 -60 21 -68 22 -74 12z"/>
</g>
</svg>
