<svg xmlns="http://www.w3.org/2000/svg" viewBox="0 0 22.73 27.29"><defs><style>.cls-1{fill:#fff;}</style></defs><title>c2qzOD.tif</title><g id="Layer_2" data-name="Layer 2"><g id="Layer_1-2" data-name="Layer 1"><g id="c2qzOD.tif"><path class="cls-1" d="M.66,10.1a3,3,0,0,1,.8,2.25c0,1.54.29,1.94,1.78,2.34a2.61,2.61,0,0,1,1.57,1.06c.16.24.35.48.53.72a1.72,1.72,0,0,0,2,.59,3.89,3.89,0,0,0,.58-.18,2.51,2.51,0,0,1,1.94,0c.28.1.57.19.86.27a1.69,1.69,0,0,0,1.79-.58,6.76,6.76,0,0,0,.44-.61,3,3,0,0,1,1.72-1.25c1.53-.42,1.88-.89,1.82-2.48a2.92,2.92,0,0,1,.7-2.09,2,2,0,0,0,0-3A3,3,0,0,1,16.44,5a6.42,6.42,0,0,0,0-.76,1.55,1.55,0,0,0-1.07-1.43,5.2,5.2,0,0,0-.67-.21,2.66,2.66,0,0,1-1.64-1.13L13,1.35C11.93-.08,11.56-.2,9.88.39a3.12,3.12,0,0,1-2.09,0C7.53.27,7.28.19,7,.09A1.08,1.08,0,0,0,5.81.35,5.46,5.46,0,0,0,5,1.3,3.2,3.2,0,0,1,3,2.64c-1.2.29-1.53.75-1.52,2a4,4,0,0,1-1,2.79A4.35,4.35,0,0,0,0,8.4,2.77,2.77,0,0,0,.66,10.1ZM5.84,21c-.16,1.8-.33,3.59-.46,5.38a3.51,3.51,0,0,0,.14.89,5.05,5.05,0,0,0,.77-.39c.82-.62,1.63-1.25,2.41-1.92a1.17,1.17,0,0,1,1.18-.22c.56.17,1.12.35,1.68.49s.67,0,.57-.5c-.33-1.75-.7-3.49-1.05-5.24a7.65,7.65,0,0,1-.22-1.16c0-.39-.24-.5-.56-.63a3.15,3.15,0,0,0-2.65,0A5.47,5.47,0,0,1,6.1,18C6,19,5.93,20,5.84,21Zm8.65-5.48c-.75.29-1,1-1.47,1.55-.06.08,0,.31.08.44.45,1,.91,2,1.37,3s.85,1.86,1.29,2.79a7.43,7.43,0,0,0,.42.75,16.93,16.93,0,0,0,1.24-1.51,1.64,1.64,0,0,1,1.79-.92c.53.08,1.07.11,1.6.15a14.42,14.42,0,0,0,1.47,0,1.24,1.24,0,0,0,.45-.19,1.64,1.64,0,0,0-.19-.4l-4.88-5.61-.93-1.08C15.92,14.92,15.21,15.25,14.49,15.54Z"/><path class="cls-1" d="M0,8.4a2.77,2.77,0,0,0,.66,1.7,3,3,0,0,1,.8,2.25c0,1.54.29,1.94,1.78,2.34a2.61,2.61,0,0,1,1.57,1.06c.16.24.35.48.53.72a1.72,1.72,0,0,0,2,.59,3.89,3.89,0,0,0,.58-.18,2.51,2.51,0,0,1,1.94,0c.28.1.57.19.86.27a1.69,1.69,0,0,0,1.79-.58,6.76,6.76,0,0,0,.44-.61,3,3,0,0,1,1.72-1.25c1.53-.42,1.88-.89,1.82-2.48a2.92,2.92,0,0,1,.7-2.09,2,2,0,0,0,0-3A3,3,0,0,1,16.44,5a6.42,6.42,0,0,0,0-.76,1.55,1.55,0,0,0-1.07-1.43,5.2,5.2,0,0,0-.67-.21,2.66,2.66,0,0,1-1.64-1.13L13,1.35C11.93-.08,11.56-.2,9.88.39a3.12,3.12,0,0,1-2.09,0C7.53.27,7.28.19,7,.09A1.08,1.08,0,0,0,5.81.35,5.46,5.46,0,0,0,5,1.3,3.2,3.2,0,0,1,3,2.64c-1.2.29-1.53.75-1.52,2a4,4,0,0,1-1,2.79A4.35,4.35,0,0,0,0,8.4Z"/><path class="cls-1" d="M6.1,18C6,19,5.93,20,5.84,21c-.16,1.8-.33,3.59-.46,5.38a3.51,3.51,0,0,0,.14.89,5.05,5.05,0,0,0,.77-.39c.82-.62,1.63-1.25,2.41-1.92a1.17,1.17,0,0,1,1.18-.22c.56.17,1.12.35,1.68.49s.67,0,.57-.5c-.33-1.75-.7-3.49-1.05-5.24a7.65,7.65,0,0,1-.22-1.16c0-.39-.24-.5-.56-.63a3.15,3.15,0,0,0-2.65,0A5.47,5.47,0,0,1,6.1,18Z"/><path class="cls-1" d="M16.73,14.56c-.81.36-1.52.69-2.24,1s-1,1-1.47,1.55c-.06.08,0,.31.08.44.45,1,.91,2,1.37,3s.85,1.86,1.29,2.79a7.43,7.43,0,0,0,.42.75,16.93,16.93,0,0,0,1.24-1.51,1.64,1.64,0,0,1,1.79-.92c.53.08,1.07.11,1.6.15a14.42,14.42,0,0,0,1.47,0,1.24,1.24,0,0,0,.45-.19,1.64,1.64,0,0,0-.19-.4l-4.88-5.61Z"/></g></g></g></svg>