<svg xmlns="http://www.w3.org/2000/svg" viewBox="0 0 17.35 20.74"><defs><style>.cls-1{fill:#fff;}</style></defs><title>pEhd1o</title><g id="Layer_2" data-name="Layer 2"><g id="Layer_1-2" data-name="Layer 1"><g id="pEhd1o"><path class="cls-1" d="M5.13,0h7.09c.8.29.64,1,.68,1.64h3.32c.82,0,1.12.29,1.12,1.1q0,8.45,0,16.91c0,.77-.32,1.08-1.09,1.08H1.19c-.9,0-1.19-.28-1.19-1.18V2.84c0-.93.27-1.19,1.22-1.2H4.47C4.47,1,4.41.32,5.13,0ZM1.74,3.42V19H15.6V3.43H12.88V4a.89.89,0,0,1-1,1H5.5a1,1,0,0,1-1-1c0-.18,0-.35,0-.55Zm4.52-.2h4.9V1.78H6.26Z"/><path class="cls-1" d="M8.72,12.17h3c.61,0,1,.32,1,.84a.87.87,0,0,1-1,.91H5.63a.88.88,0,0,1-1-.9c0-.53.38-.85,1-.85Z"/><path class="cls-1" d="M8.77,17.25h-3c-.64,0-1-.34-1-.87a.9.9,0,0,1,1-.88h6c.61,0,1.06.38,1,.87a1,1,0,0,1-1,.89C10.8,17.22,9.78,17.25,8.77,17.25Z"/><path class="cls-1" d="M7.81,9.33c-1-.12-1.31-.32-1.32-.91s.29-.79,1.32-.91c0-.63.07-1.3.93-1.33.52,0,.7.28.89,1.31,1.09.21,1.34.4,1.31,1s-.35.77-1.21.85a7.65,7.65,0,0,1-.52,1.15c-.08.13-.39.16-.59.16C8.08,10.6,7.89,10.28,7.81,9.33Z"/></g></g></g></svg>