<svg xmlns="http://www.w3.org/2000/svg" viewBox="0 0 22.25 22.24"><defs><style>.cls-1{fill:#fff;}</style></defs><title>4iHa9V.tif</title><g id="Layer_2" data-name="Layer 2"><g id="Layer_1-2" data-name="Layer 1"><g id="_4iHa9V.tif" data-name="4iHa9V.tif"><path class="cls-1" d="M9.33,0h3.55a.77.77,0,0,1,.4.7c.11.74.23,1.48.34,2.22a.27.27,0,0,0,.2.25c.32.11.63.24.94.38a.29.29,0,0,0,.35,0c.62-.48,1.25-1,1.88-1.42a.49.49,0,0,1,.71,0Q18.87,3.26,20,4.45c.28.3.26.53,0,.86-.43.56-.86,1.13-1.3,1.68a.35.35,0,0,0,0,.43,10.44,10.44,0,0,1,.41,1,.34.34,0,0,0,.34.27c.73.11,1.46.23,2.2.33a.64.64,0,0,1,.63.53v3.3a.69.69,0,0,1-.62.5c-.74.09-1.47.21-2.2.31-.2,0-.32.08-.38.29a4.38,4.38,0,0,1-.37.86.33.33,0,0,0,0,.41L20.1,17c.22.28.24.48,0,.71a14.24,14.24,0,0,1-2.34,2.38c-.4.32-.58.3-1,0l-1.7-1.33a.27.27,0,0,0-.33,0,10.2,10.2,0,0,1-1,.4.29.29,0,0,0-.21.27c-.12.82-.25,1.65-.39,2.47a.47.47,0,0,1-.54.42H9.54A.5.5,0,0,1,9,21.74c-.12-.79-.25-1.58-.36-2.37a.33.33,0,0,0-.24-.31c-.3-.11-.6-.23-.89-.36a.35.35,0,0,0-.41,0c-.6.47-1.21.94-1.83,1.4a.51.51,0,0,1-.69,0c-.78-.77-1.56-1.54-2.32-2.33-.32-.33-.29-.55,0-.92.43-.58.87-1.14,1.31-1.71a.26.26,0,0,0,0-.33c-.16-.35-.3-.7-.43-1a.32.32,0,0,0-.3-.25c-.78-.1-1.55-.22-2.33-.34C.15,13.17,0,13,0,12.66V9.52A.52.52,0,0,1,.49,9l2.4-.36a.29.29,0,0,0,.26-.22c.12-.33.26-.64.4-1a.29.29,0,0,0,0-.36c-.47-.59-.93-1.19-1.4-1.79-.21-.27-.24-.45,0-.71A14,14,0,0,1,4.45,2.17c.37-.29.53-.27.9,0,.59.45,1.17.9,1.74,1.36a.29.29,0,0,0,.34,0,7.46,7.46,0,0,1,.88-.37.38.38,0,0,0,.29-.35c.1-.77.24-1.53.35-2.3A.71.71,0,0,1,9.33,0Zm1.78,7.42a3.71,3.71,0,1,0,3.7,3.69A3.68,3.68,0,0,0,11.11,7.42Z"/></g></g></g></svg>