<svg xmlns="http://www.w3.org/2000/svg" viewBox="0 0 10.47 21.27"><defs><style>.cls-1{fill:#fff;}</style></defs><title>Cz0scK</title><g id="Layer_2" data-name="Layer 2"><g id="Layer_1-2" data-name="Layer 1"><g id="Cz0scK"><path class="cls-1" d="M5.78,0a4.7,4.7,0,0,1,2.6,1.57A4,4,0,0,1,7,7.53a.67.67,0,0,0-.48.73c0,1.71,0,.48,0,2.19a.54.54,0,0,0,.42.61,5.2,5.2,0,0,1,1.59,9,4.91,4.91,0,0,1-5.36.7A5,5,0,0,1,0,16.15a1.26,1.26,0,0,1,1.14-1.41A1.27,1.27,0,0,1,2.48,16,2.78,2.78,0,0,0,4,18.39a2.52,2.52,0,0,0,2.94-.29,2.52,2.52,0,0,0,.94-2.72,2.62,2.62,0,0,0-2.29-2.07c-.58-.07-1.17-.11-1.43-.74A2.26,2.26,0,0,1,4,11.71c0-2.1,0-1.28,0-3.38a.74.74,0,0,0-.51-.81,3.91,3.91,0,0,1-2.22-3.6A4,4,0,0,1,3.81.28L4.7,0ZM7.22,4a2,2,0,0,0-2-2,2,2,0,0,0,0,4A2,2,0,0,0,7.22,4Z"/></g></g></g></svg>