<svg xmlns="http://www.w3.org/2000/svg" viewBox="0 0 20.6 21.48"><defs><style>.cls-1{fill:#fff;}</style></defs><title>Asset 8</title><g id="Layer_2" data-name="Layer 2"><g id="Layer_1-2" data-name="Layer 1"><path class="cls-1" d="M20.42,9.62s-.1-.08-.07-.16A6.18,6.18,0,0,0,20.41,8c0-.07,0-.12-.12-.09-1.2.28-2.33.79-3.5,1.15-.08,0-.22.14-.26,0s.14-.1.22-.13.19-.06.14-.22-.13-.17-.26-.13-.42.12-.64.18c0,0,0,0,0,0,.35,0,.35,0,.44.43a1,1,0,0,1,0,.34c0,.18.09.41,0,.51s-.33,0-.5,0h-.64l0,0c.4,0,.4,0,.5.44.14.61.29,1.22.43,1.84,0,.14.09.19.23.18h.56c.12,0,.16.05.15.17,0,.4,0,.81,0,1.22,0,.14-.06.17-.18.17H15.71c-.18,0-.23,0-.23.23,0,1.93,0,3.86,0,5.78,0,.28,0,.28-.24.14s-.37-.23-.55-.35a1.3,1.3,0,0,0-.52-.24c-.21,0-.25-.12-.25-.31,0-1.67,0-3.33,0-5,0-.19,0-.26-.25-.26h-3c-.18,0-.23,0-.23.23,0,1.73,0,3.47,0,5.2,0,.2,0,.23-.22.16a1,1,0,0,0-.91.08L9,20a.35.35,0,0,1,0-.22C9,18,9,16.19,9,14.38c0-.18-.05-.23-.23-.23h-3c-.17,0-.21,0-.21.22,0,1.73,0,3.45,0,5.18a.28.28,0,0,1-.18.3c-.25.13-.48.31-.72.46a1.24,1.24,0,0,1-.53.18c-.09,0-.13,0-.13-.11a1.2,1.2,0,0,0,0-.19c0-1.93,0-3.86,0-5.79,0-.2-.05-.25-.25-.25H1.94c-.2,0-.24-.06-.23-.24,0-.37,0-.75,0-1.12,0-.16,0-.21.2-.21H3.22c.19,0,.26,0,.26-.25,0-.67,0-1.35,0-2,0-.16,0-.21.2-.2H4.75c.15,0,.21-.05.21-.19,0-.37.06-.73,0-1.09A7.38,7.38,0,0,1,5.08,8c0-.54.09-1.09.14-1.63,0-.16-.09-.41.23-.43.08,0,0-.14.12-.17s0,.22.21.2.07.07.07.13C5.91,6.87,6,7.6,6,8.32l.27,3.56s0,0,0,.06a.77.77,0,0,0,0-.3c0-1.12,0-2.24,0-3.36,0-.17,0-.22.21-.22.54,0,1.09,0,1.63,0,.21,0,.24.07.24.25q0,2,0,4c0,.09-.05.22.06.25a.85.85,0,0,0,.5,0c.07,0,0-.13,0-.2C9,11.25,9,10.13,9,9c0-.19.06-.2.21-.2h1.35c.12,0,.19,0,.19-.16s-.1-.12-.19-.12H9c-.16,0-.23,0-.22-.21,0-.47,0-.47.47-.47s.92,0,1.38,0c.17,0,.24-.05.25-.22.05-.76.12-1.52.17-2.28.13-1.59.25-3.18.37-4.77,0-.17,0-.26.24-.23s.24,0,.21-.21,0-.16.09-.15.08.1.07.15.05.24.22.21.23.06.24.22c.08,1.21.18,2.41.27,3.61.13,1.57.25,3.14.37,4.71a6.21,6.21,0,0,0,.12.85c0-.38,0-.76,0-1.13,0-.16,0-.22.2-.21h1.68c.11,0,.18,0,.18.16s.1.31.35.23C17,8.34,18.41,8,19.81,7.59a.46.46,0,0,0,.24-.12.22.22,0,0,1,.27-.06.26.26,0,0,1,.16.26c0,.25,0,.51,0,.77a2.63,2.63,0,0,0,.11,1.18.12.12,0,0,1,0,.15c-.05,0-.1.05-.14,0s-.14,0,0-.11.06.09.1,0S20.46,9.64,20.42,9.62ZM5.73,8.31c.08,0,.12.1.23.07l0-.48c-.33.17-.35.21-.21.42,0,0-.08-.08-.12,0a.12.12,0,0,0,0,.14.15.15,0,0,0,.16,0C5.84,8.38,5.74,8.36,5.73,8.31Zm0,.73c.12,0,.16.17.31.2,0-.2,0-.39,0-.58s0-.11-.08-.07a1.12,1.12,0,0,0-.28.25c-.07.1.11.12.1.21S5.64,9,5.61,9s0,.16,0,.2a.31.31,0,0,0,.28,0ZM12.7,8c-.07-.06.08-.09,0-.15h-.66c.21.07.44,0,.63.15a.38.38,0,0,0-.13.36c0,.15,0,.21-.18.2a.87.87,0,0,0-.41,0l1.07.82-.12-1.53C12.82,7.88,12.78,8,12.7,8Zm.49,3.19-.14-1.65-.8.57a.28.28,0,0,0,0,.4Zm-.27-3.43L12.8,6.19l-.75.65a.08.08,0,0,0,0,.14Zm-1.87-1.5-.12,1.49L11.76,7c.05,0,.08-.09,0-.15Zm1.73-.13-.1-1.33-.61.55q-.11.07,0,.15ZM11.16,4.8l-.11,1.31.73-.65c.07-.06,0-.1,0-.14ZM15.27,11v.47c0,.09,0,.13.13.13h.3c.06,0,.09,0,.07-.1-.07-.32-.14-.64-.22-1,0-.11-.12-.1-.21-.1s-.07.09-.07.15Zm.34,1.57c.43,0,.43,0,.32-.41a.06.06,0,0,0,0,0c0-.07,0-.17-.13-.16s-.34,0-.5,0c0,0,0,0,0,0a1.6,1.6,0,0,0,0,.49C15.34,12.68,15.51,12.58,15.61,12.61Zm1.49-3.8,1.14-.41c.1,0,.05-.1,0-.16s0-.1-.12-.08L17,8.48c-.11,0-.09.1-.06.16S17,8.81,17.1,8.81ZM12.65,4.64a5.07,5.07,0,0,0,0-.89c0-.1-.06-.1-.12,0l-.4.33c-.07,0-.1.1,0,.17Zm-1.4-1c0,.32-.05.59-.07.86,0,0,0,.07,0,.14l.59-.47c.06,0,0-.08,0-.12Zm4.82,5.83c.27,0,.27,0,.26-.1,0-.32-.08-.4-.3-.42s-.26,0-.25.25S15.79,9.47,16.07,9.47ZM5.78,10c.13,0,.19.17.35.2-.09-.27,0-.53-.11-.77-.4.26-.44.33-.28.53-.1-.06-.15-.05-.14.05s0,.15.08.16a.32.32,0,0,0,.21,0S5.78,10.05,5.78,10Zm6-1.39a6.41,6.41,0,0,0-.86,0c-.1,0-.08.11-.09.18s0,.09.07.11A.93.93,0,0,0,11.8,8.57Zm7.79-.67c0-.1-.06-.12-.13-.1l-1,.27c-.09,0-.12.07-.09.16s.08.11.16.08L19.49,8C19.54,8,19.59,8,19.59,7.9Zm-7.76-.85-.75.66h.17C11.87,7.73,11.87,7.73,11.83,7.05Zm.93.67-.65-.57s0,0-.08,0c-.1.61-.1.62.48.61Zm.15,3.4v0l-.39-.28c-.1-.07-.22-.22-.3-.17s0,.24,0,.37,0,.13.12.13Zm2.36-1.91c0,.18,0,.26.24.26s.17-.17.19-.3S15.63,9,15.47,9,15.25,9,15.27,9.21Zm-2.75-6.5c-.19.13-.42.21-.47.38s.25.2.39.29.07.06.13.05A3.69,3.69,0,0,0,12.52,2.71ZM11.84,6.8V6.33s0-.13-.07-.13a2.49,2.49,0,0,0-.6,0Zm-.58-3.36a.42.42,0,0,0,.22-.11c.39-.27.39-.3,0-.53-.1,0-.13,0-.13.07S11.28,3.24,11.26,3.44Zm.53,2.12-.58.53c.74,0,.63.11.62-.49Zm.72-3c0-.22,0-.43,0-.63,0,0,0-.13-.08-.07a2.39,2.39,0,0,0-.35.28s0,.07,0,.1A2.07,2.07,0,0,0,12.51,2.55Zm.12,3.56a4,4,0,0,0-.32-.3c-.09-.07-.16-.18-.29-.22,0,.65-.08.5.46.52Zm-.45,2.74v.44c0,.07,0,.11.1.11h.56V9.35Zm-7.13.53C5,9.62,5,9.82,5,10s0,.12.12.06c.42-.26.42-.33,0-.64A.37.37,0,0,1,5.05,9.38Zm7.59-3.17c-.74,0-.63-.11-.62.49l.05,0ZM11.31,2.58c.2-.16.44-.24.47-.42s-.22-.21-.34-.31h0C11.33,2.06,11.38,2.29,11.31,2.58ZM12.23,10l.62-.45c-.64-.11-.72,0-.66.43Zm.19-8.37a1.11,1.11,0,0,0,0-.41c0-.09,0-.24-.05-.27s-.16.11-.24.18-.16.08-.06.18Zm-.93-.7a.47.47,0,0,0-.05.27c0,.13-.1.32,0,.36s.21-.16.32-.24.07-.09,0-.14ZM5.13,8.58a2.27,2.27,0,0,0,0,.63C5.55,9,5.56,8.88,5.13,8.58Zm6.18-3.81,0,.09.34.29s.07.06.1.06,0-.09,0-.13c0-.31,0-.31-.3-.31ZM6.24,12.11a6,6,0,0,0,0-.74s0-.12-.06-.11-.07.06-.07.11,0,.34,0,.51A.2.2,0,0,0,6.24,12.11ZM5.15,8.42c.07-.14.35-.1.29-.36,0,0,.09-.15,0-.18A.21.21,0,0,0,5.15,8,.86.86,0,0,0,5.15,8.42ZM12,5.22a3.19,3.19,0,0,0,.47-.42C12,4.71,12,4.73,12,5.22ZM12.23.74s.16.06.15-.1-.05-.21-.2-.2S12,.46,12,.59,12.09.76,12.23.74ZM11.67.45c-.11,0-.19,0-.19.16s0,.15.15.14.22,0,.21-.15S11.8.43,11.67.45Zm-.31,4.16c.5.09.55,0,.44-.33l-.33.26Zm1.14,0-.38-.3L12,4.28C12,4.68,12,4.7,12.5,4.64ZM11.82,4c0-.38,0-.44-.4-.31A2.12,2.12,0,0,0,11.82,4Zm.58-.35h-.26c-.06,0-.13,0-.13.08s0,.17,0,.2.11,0,.15-.06A.66.66,0,0,0,12.4,3.62ZM11.07,7.81v0h.73v0ZM5.47,9.66c0-.12.07-.23,0-.29s-.21,0-.34,0Zm.45-1.9c0-.14,0-.3-.06-.36s-.16.09-.25.16A.92.92,0,0,0,5.92,7.76Zm5.9-4.56a1.53,1.53,0,0,0-.37.29C11.85,3.54,11.86,3.54,11.82,3.2Zm.21,0c0,.32,0,.35.37.26Zm-.54-.52v0l.22.15s.07.07.11,0,0-.09,0-.13,0-.1-.08-.1ZM5.85,6.84c-.11.07-.24.12-.23.21s.14.12.23.18A1.27,1.27,0,0,0,5.85,6.84Zm5.63-4.27c.37.06.41,0,.32-.26Zm.86,0A.51.51,0,0,0,12,2.35C12,2.62,12,2.63,12.34,2.58ZM5.17,7.78c.12-.09.27-.12.28-.23s-.14-.12-.24-.17ZM12.35,2.7c-.35,0-.36,0-.32.22A.92.92,0,0,0,12.35,2.7Zm-.54-1.31a.87.87,0,0,0-.26.28C11.86,1.7,11.87,1.69,11.81,1.39ZM5.22,7.24c.1-.07.24-.09.23-.23s-.12-.14-.16-.11S5.21,7.11,5.22,7.24ZM12,1.42c0,.28,0,.29.27.23A.89.89,0,0,0,12,1.42ZM6.1,10.32a1,1,0,0,0,.06.78A5,5,0,0,0,6.1,10.32Zm-.19-1c-.34,0-.34,0-.28.26A.85.85,0,0,0,5.91,9.35ZM5.25,6.7c.28-.17.28-.19.06-.34A.86.86,0,0,0,5.25,6.7ZM20,7.78c0-.08,0-.13-.11-.1s-.19,0-.19.12,0,.1.1.08S20,7.85,20,7.78ZM5.81,6.68V6.35C5.55,6.48,5.55,6.5,5.81,6.68ZM5.47,9l-.29.26C5.49,9.3,5.5,9.29,5.47,9ZM11.56,1.8c.08.07.14.19.27.17a.21.21,0,0,0,0-.14C11.77,1.71,11.66,1.78,11.56,1.8Zm.26-.73c0-.09,0-.18,0-.22a.18.18,0,0,0-.22,0C11.67.94,11.72,1,11.82,1.07ZM5.46,9.84c-.09.11-.19.16-.25.27C5.5,10.16,5.51,10.15,5.46,9.84Zm6.79-9c-.26,0-.27,0-.2.19A.71.71,0,0,0,12.25.85Zm0,.94c-.27,0-.29,0-.22.18A.52.52,0,0,0,12.27,1.79ZM5.85,8.55c-.26,0-.26,0-.23.2A1.1,1.1,0,0,0,5.85,8.55Zm-.67,0c.13.08.17.18.29.2C5.55,8.49,5.39,8.51,5.18,8.54Z"/><path class="cls-1" d="M2,20.27a1.55,1.55,0,0,1,.87.26l.62.4a1.06,1.06,0,0,0,1.17,0c.24-.15.47-.31.71-.45a1.28,1.28,0,0,1,1.37,0c.21.12.41.26.62.4a1.1,1.1,0,0,0,1.34,0l.52-.34a1.35,1.35,0,0,1,1.59,0l.56.36a1.07,1.07,0,0,0,1.25,0l.52-.34a1.42,1.42,0,0,1,1.71,0,5.39,5.39,0,0,0,.5.33,1,1,0,0,0,1.25,0l.52-.34a1.57,1.57,0,0,1,1.44-.18,7.73,7.73,0,0,1,1.38.69c.09.06.13.12.05.2s-.08.24-.26.12a5.39,5.39,0,0,0-1.22-.62,1.27,1.27,0,0,0-1.26.15c-.19.13-.38.26-.58.37a1.29,1.29,0,0,1-1.39,0l-.69-.44a1,1,0,0,0-1.21,0l-.52.34a1.42,1.42,0,0,1-1.71,0l-.58-.37a1,1,0,0,0-1.07,0c-.23.13-.44.28-.66.42a1.38,1.38,0,0,1-1.59,0l-.64-.4a1,1,0,0,0-1.17,0c-.22.14-.43.29-.65.42a1.35,1.35,0,0,1-1.47,0c-.19-.11-.39-.24-.58-.37a1.2,1.2,0,0,0-1.12-.16,4.82,4.82,0,0,0-1.27.62c-.14.09-.21.07-.3-.07s0-.19.1-.25a5.27,5.27,0,0,1,1.62-.73Z"/></g></g></svg>