<svg xmlns="http://www.w3.org/2000/svg" viewBox="0 0 14.8 23.4"><defs><style>.cls-1{fill:#fff;}</style></defs><title>DOrliH</title><g id="Layer_2" data-name="Layer 2"><g id="Layer_1-2" data-name="Layer 1"><g id="DOrliH"><path class="cls-1" d="M0,23.4,2.72,0h9.36q1.37,11.69,2.72,23.4Zm3.19-7.69s0,.06.05.07l4,1.76a.61.61,0,0,0,.42,0c.73-.31,1.45-.63,2.17-1S11,16,11.65,15.73c-1.26-.56-2.49-1.09-3.7-1.66a1.15,1.15,0,0,0-1.08,0C5.66,14.63,4.42,15.16,3.19,15.71Zm8-5.62C10,9.4,8.74,8.72,7.53,8.06a.42.42,0,0,0-.34,0L3.7,9.83,3.4,10c1.12.5,2.2.95,3.26,1.47a1.46,1.46,0,0,0,1.43,0C9.09,11,10.13,10.56,11.18,10.09Zm1.34,11.85s0-.05,0-.05Q10,20.81,7.53,19.76a.37.37,0,0,0-.29,0L4.64,21l-2.1,1ZM4.2,4.08l0,.11C5,4.63,5.86,5,6.63,5.52a1.26,1.26,0,0,0,1.53,0c.7-.45,1.46-.81,2.19-1.21a1,1,0,0,0,.23-.23A1.85,1.85,0,0,0,10.25,4c-.19,0-.38,0-.58,0H4.53A1.07,1.07,0,0,0,4.2,4.08Zm-2.39,16,3.26-1.45L2.22,17.39Zm11.19,0-.42-2.72L9.73,18.67ZM2.76,13.84l2.31-1-2-.89Zm9-1.93-2,.9,2.3,1ZM9.32,7l1.83,1-.27-1.83Zm-5.67,1L5.48,7,3.93,6.11Z"/></g></g></g></svg>