<svg xmlns="http://www.w3.org/2000/svg" viewBox="0 0 13.8 19.49"><defs><style>.cls-1{fill:#fff;}</style></defs><title>Asset 13</title><g id="Layer_2" data-name="Layer 2"><g id="Layer_1-2" data-name="Layer 1"><path class="cls-1" d="M3.08,15.08c0,.06,0,.11,0,.18H10.7c0-.06,0-.09,0-.13,0-1.74,0-3.47,0-5.2a4.24,4.24,0,0,0-.15-1.06A3.8,3.8,0,0,0,3.08,10C3.07,11.67,3.08,13.37,3.08,15.08Z"/><path class="cls-1" d="M12.3,16.67H1.49a.74.74,0,0,0-.82.81v1.83a1.24,1.24,0,0,0,0,.18H13.1a1.21,1.21,0,0,0,0-.18V17.48A.73.73,0,0,0,12.3,16.67Z"/><path class="cls-1" d="M6.9,4.24a.49.49,0,0,0,.49-.49V.49a.49.49,0,0,0-1,0V3.75A.49.49,0,0,0,6.9,4.24Z"/><path class="cls-1" d="M2.8,5.94a.45.45,0,0,0,.34-.14.5.5,0,0,0,0-.7L.84,2.8a.5.5,0,0,0-.7,0,.49.49,0,0,0,0,.69L2.45,5.8A.46.46,0,0,0,2.8,5.94Z"/><path class="cls-1" d="M13.65,2.8a.49.49,0,0,0-.69,0l-2.3,2.3a.48.48,0,0,0,0,.7.45.45,0,0,0,.34.14.47.47,0,0,0,.35-.14l2.3-2.31A.47.47,0,0,0,13.65,2.8Z"/></g></g></svg>