<svg xmlns="http://www.w3.org/2000/svg" viewBox="0 0 20.04 27.87"><defs><style>.cls-1{fill:#fff;}</style></defs><title>bCcc70</title><g id="Layer_2" data-name="Layer 2"><g id="Layer_1-2" data-name="Layer 1"><path id="bCcc70" class="cls-1" d="M10,0A9.94,9.94,0,0,1,20,10.55,12.19,12.19,0,0,1,18.61,15a69.9,69.9,0,0,1-6.75,10.9c-.39.54-.78,1.08-1.2,1.6a.74.74,0,0,1-1.27,0C6,23,2.75,18.4.63,13.11-1.6,7.58,2.37,1.15,8.29.19,8.86.09,9.45.06,10,0Zm4.36,10.05a4.34,4.34,0,1,0-8.67,0,4.34,4.34,0,1,0,8.67,0Z"/></g></g></svg>