<?xml version="1.0" encoding="utf-8"?>
<!-- Generator: Adobe Illustrator 22.1.0, SVG Export Plug-In . SVG Version: 6.00 Build 0)  -->
<svg version="1.1" id="Layer_1" xmlns="http://www.w3.org/2000/svg" xmlns:xlink="http://www.w3.org/1999/xlink" x="0px" y="0px"
	 viewBox="0 0 1190.6 1190.6" style="enable-background:new 0 0 1190.6 1190.6;" xml:space="preserve">
<style type="text/css">
	.st0{fill:#1C2241;}
	.st1{fill:#FFFFFF;}
	.st2{fill:none;}
	.st3{fill:url(#SVGID_1_);}
	.st4{fill:url(#SVGID_2_);}
	.st5{fill:url(#SVGID_3_);}
</style>
<rect class="st0" width="1190.6" height="1190.6"/>
<g>
	<g>
		<g>
			<path class="st1" d="M635.7,471.6c15.7,0,29.2,5.6,40.5,16.8c11.2,11.2,16.8,24.7,16.8,40.5c0,15.8-5.6,29.3-16.8,40.5
				c-11.2,11.2-24.7,16.8-40.5,16.8h-26.5V471.6H635.7z M635.7,581.9c14.6,0,27-5.2,37.4-15.5c10.4-10.4,15.6-22.9,15.6-37.5
				c0-14.6-5.2-27.1-15.6-37.5c-10.4-10.3-22.8-15.5-37.4-15.5h-22.2v106H635.7z"/>
			<path class="st1" d="M707.9,586.2h-4.3V471.6h4.3V586.2z"/>
			<path class="st1" d="M735.5,570.1c-11.4-11.4-17.2-25.1-17.2-41.3s5.7-29.9,17.2-41.3c11.4-11.4,25.1-17.2,41.3-17.2
				c7.9,0,15.5,1.5,22.7,4.6l-1.7,3.9c-6.7-2.8-13.7-4.2-21.1-4.2c-14.9,0-27.7,5.3-38.2,15.9c-10.6,10.5-15.9,23.3-15.9,38.2
				c0,14.9,5.3,27.6,15.9,38.2c10.5,10.6,23.3,15.9,38.2,15.9c6.9,0,13.5-1.2,19.9-3.8v-48.6h-28.7v-4.3h33v55.8l-1.4,0.6
				c-7.2,3.1-14.8,4.6-22.8,4.6C760.6,587.3,746.9,581.6,735.5,570.1z"/>
			<path class="st1" d="M820.7,586.2h-4.3V471.6h4.3V586.2z"/>
			<path class="st1" d="M905.5,471.6v4.3h-35.3v110.3h-4.3V475.9h-35.3v-4.3H905.5z"/>
			<path class="st1" d="M966.2,471.6v114.6H962v-30.3H910l-19.2,30.3h-5.1l21.5-33.9v-0.7h0.4l50.6-80H966.2z M912.7,551.6H962
				v-77.8L912.7,551.6z"/>
			<path class="st1" d="M986.1,471.6v110.3h54.3v4.3h-58.6V471.6H986.1z"/>
		</g>
		<g>
			<path class="st1" d="M432.3,586.2V485.5H413v-15.7h55.2v15.7H449v100.7H432.3z"/>
			<path class="st1" d="M475.6,586.2V469.8h16.7v49.8h20.6v-49.8h16.7v116.3h-16.7v-51.8h-20.6v51.8H475.6z"/>
			<path class="st1" d="M538.8,586.2V469.8h49.7v15.7h-33v34.2h28.8v15.7h-28.8v34.2h33v16.7H538.8z"/>
		</g>
	</g>
	<g>
		<path class="st1" d="M536,723.6V607.3h16l25.2,70.1h0.3v-70.1h16.7v116.3h-15.7L553,653.7h-0.3v69.9H536z"/>
		<path class="st1" d="M608.2,634.7c0-4.7,0.8-8.8,2.5-12.4c1.6-3.6,3.8-6.6,6.5-9c2.6-2.3,5.6-4,8.9-5.2c3.3-1.2,6.7-1.8,10-1.8
			c3.4,0,6.7,0.6,10.1,1.8c3.3,1.2,6.3,2.9,9.1,5.2c2.6,2.4,4.7,5.4,6.4,9c1.6,3.6,2.5,7.7,2.5,12.4v61.4c0,4.9-0.8,9.1-2.5,12.6
			c-1.6,3.5-3.8,6.4-6.4,8.7c-2.7,2.4-5.7,4.2-9.1,5.4c-3.3,1.2-6.7,1.8-10.1,1.8c-3.4,0-6.7-0.6-10-1.8c-3.3-1.2-6.3-3-8.9-5.4
			c-2.7-2.3-4.9-5.2-6.5-8.7c-1.6-3.5-2.5-7.7-2.5-12.6V634.7z M624.9,696.2c0,4,1.1,7,3.3,8.9c2.2,1.9,4.9,2.9,7.9,2.9
			c3,0,5.7-1,7.9-2.9c2.2-1.9,3.3-4.9,3.3-8.9v-61.4c0-4-1.1-7-3.3-8.9c-2.2-1.9-4.9-2.9-7.9-2.9c-3.1,0-5.7,1-7.9,2.9
			c-2.2,1.9-3.3,4.9-3.3,8.9V696.2z"/>
		<path class="st1" d="M678.8,723.6V607.3h26.8c19.6,0,29.4,11.4,29.4,34.2c0,6.9-1.1,12.7-3.2,17.5c-2.1,4.8-5.9,8.7-11.2,11.6
			l18,53.1h-17.6l-15.5-49.7h-10v49.7H678.8z M695.5,622.9v36.3h9.5c2.9,0,5.3-0.4,7-1.2c1.7-0.8,3.1-2,4.1-3.5
			c0.9-1.5,1.5-3.4,1.8-5.6c0.3-2.2,0.5-4.8,0.5-7.8c0-2.9-0.2-5.5-0.5-7.8c-0.3-2.2-1-4.2-2-5.8c-2.1-3-6-4.6-11.8-4.6H695.5z"/>
		<path class="st1" d="M756.4,723.6V622.9h-19.3v-15.7h55.2v15.7h-19.3v100.7H756.4z"/>
		<path class="st1" d="M799.7,723.6V607.3h16.7v49.8H837v-49.8h16.7v116.3H837v-51.8h-20.6v51.8H799.7z"/>
		<path class="st1" d="M953.6,640.8H937V637c0-3.8-0.9-7.1-2.7-9.9c-1.8-2.8-4.8-4.2-9.1-4.2c-2.3,0-4.1,0.4-5.6,1.3
			c-1.4,0.9-2.6,2-3.4,3.3c-0.9,1.4-1.5,3-1.8,4.8c-0.3,1.8-0.5,3.7-0.5,5.6c0,2.3,0.1,4.2,0.2,5.7c0.2,1.5,0.6,2.9,1.2,4.1
			c0.7,1.2,1.6,2.2,2.9,3.1c1.3,0.9,3,1.7,5.1,2.6l12.7,5.1c3.7,1.4,6.7,3.1,9,5c2.3,1.9,4.1,4.1,5.4,6.6c1.2,2.6,2,5.6,2.5,8.9
			c0.4,3.3,0.7,7.1,0.7,11.4c0,4.9-0.5,9.5-1.5,13.6c-1,4.2-2.6,7.8-4.7,10.7c-2.3,3.1-5.3,5.4-9,7.2c-3.7,1.7-8.2,2.6-13.6,2.6
			c-4,0-7.8-0.7-11.3-2.1c-3.5-1.4-6.5-3.4-9-5.9c-2.5-2.5-4.5-5.4-6-8.7c-1.5-3.3-2.2-6.9-2.2-10.9v-6.2h16.7v5.2
			c0,3.1,0.9,5.8,2.7,8.3c1.8,2.5,4.8,3.7,9.1,3.7c2.8,0,5-0.4,6.6-1.2c1.6-0.8,2.8-2,3.7-3.5c0.9-1.5,1.4-3.4,1.6-5.5
			c0.2-2.1,0.2-4.5,0.2-7.1c0-3-0.1-5.6-0.3-7.5c-0.2-2-0.7-3.5-1.3-4.7c-0.8-1.2-1.8-2.2-3-2.9c-1.3-0.8-2.9-1.6-5-2.5l-11.9-4.9
			c-7.2-2.9-12-6.8-14.5-11.7c-2.5-4.8-3.7-10.9-3.7-18.2c0-4.4,0.6-8.5,1.8-12.4c1.2-3.9,3-7.3,5.4-10.1c2.3-2.8,5.2-5.1,8.7-6.8
			c3.5-1.7,7.8-2.5,12.7-2.5c4.1,0,7.9,0.8,11.4,2.3c3.4,1.5,6.4,3.5,8.9,6c5,5.2,7.5,11.2,7.5,18V640.8z"/>
		<path class="st1" d="M966.1,723.6V607.3h49.7v15.7h-33v34.2h28.8v15.7h-28.8v34.2h33v16.7H966.1z"/>
		<path class="st1" d="M1019,723.6l26-116.3h13.9l26,116.3h-16.7l-4.9-25h-22.7l-4.9,25H1019z M1060.2,682.9l-8.2-42.2h-0.3
			l-8.2,42.2H1060.2z"/>
	</g>
</g>
<g>
	<path class="st1" d="M361.4,666.3c-2.1,0-4.1-0.8-5.5-2.4l-76.6-81.2l-113.6-6.5c-3.1-0.2-5.8-2.2-6.8-5.1c-1-2.9-0.1-6.2,2.2-8.2
		l195.3-168.8c2.3-1.9,5.4-2.4,8.1-1.2c2.7,1.2,4.4,3.9,4.4,6.9v258.8c0,3.1-1.9,5.9-4.8,7.1C363.3,666.1,362.3,666.3,361.4,666.3z
		 M185.3,562l97.8,5.6c1.9,0.1,3.8,1,5.1,2.4l65.5,69.5v-223L185.3,562z"/>
	<g>
		<path class="st2" d="M346,613.7c-1.5,0.5-2.9,1.1-4.3,1.7l4.3,4.6V613.7z"/>
		<path class="st2" d="M204.8,555.4l6.3,0.4c-0.5-1.5-1-3-1.6-4.4L204.8,555.4z"/>
		<linearGradient id="SVGID_1_" gradientUnits="userSpaceOnUse" x1="300.2798" y1="399.1124" x2="420.8904" y2="399.1124">
			<stop  offset="0" style="stop-color:#194B77"/>
			<stop  offset="1" style="stop-color:#54BBB4"/>
		</linearGradient>
		<path class="st3" d="M315.5,400.2c0-24.9,20.2-45.1,45.1-45.1c24.9,0,45.1,20.2,45.1,45.1c0,19.2-12,35.6-29,42.1v16
			c25.4-7.1,44.2-30.4,44.2-58.1c0-33.3-27.1-60.3-60.3-60.3c-33.3,0-60.3,27.1-60.3,60.3c0,9.6,2.3,18.6,6.3,26.7l12-10.4
			C316.6,411.5,315.5,406,315.5,400.2z"/>
		<linearGradient id="SVGID_2_" gradientUnits="userSpaceOnUse" x1="300.2798" y1="657.4888" x2="420.8904" y2="657.4888">
			<stop  offset="0" style="stop-color:#194B77"/>
			<stop  offset="1" style="stop-color:#54BBB4"/>
		</linearGradient>
		<path class="st4" d="M376.7,598.3v16c16.9,6.5,29,22.9,29,42.1c0,24.9-20.2,45.1-45.1,45.1c-24.9,0-45.1-20.2-45.1-45.1
			c0-6.9,1.6-13.5,4.4-19.4l-11-11.7c-5.5,9.1-8.6,19.7-8.6,31c0,33.3,27.1,60.3,60.3,60.3c33.3,0,60.3-27.1,60.3-60.3
			C420.9,628.7,402.2,605.4,376.7,598.3z"/>
		<linearGradient id="SVGID_3_" gradientUnits="userSpaceOnUse" x1="107.6275" y1="568.9275" x2="228.2381" y2="568.9275">
			<stop  offset="0" style="stop-color:#194B77"/>
			<stop  offset="1" style="stop-color:#54BBB4"/>
		</linearGradient>
		<path class="st5" d="M167.9,614c-24.9,0-45.1-20.2-45.1-45.1c0-24.9,20.2-45.1,45.1-45.1c7.4,0,14.4,1.8,20.6,5l12.2-10.5
			c-9.4-6.1-20.7-9.7-32.8-9.7c-33.3,0-60.3,27.1-60.3,60.3c0,33.3,27.1,60.3,60.3,60.3c26.8,0,49.6-17.6,57.4-41.9l-15.9-0.9
			C202.6,602.6,186.6,614,167.9,614z"/>
	</g>
</g>
</svg>
