<svg xmlns="http://www.w3.org/2000/svg" viewBox="0 0 19.67 24.28"><defs><style>.cls-1{fill:#fff;}</style></defs><title>Asset 14</title><g id="Layer_2" data-name="Layer 2"><g id="Layer_1-2" data-name="Layer 1"><path class="cls-1" d="M9.84,2.3a12.09,12.09,0,0,0-1.21.08L7.49,0l-4,5.81,7,.55L9.46,4.11c.12,0,.25,0,.38,0a8.07,8.07,0,0,1,8.06,8.07h1.77A9.85,9.85,0,0,0,9.84,2.3Z"/><path class="cls-1" d="M10.22,20.17c-.13,0-.25,0-.38,0a8.08,8.08,0,0,1-8.07-8.07H0A9.84,9.84,0,0,0,9.84,22a9.67,9.67,0,0,0,1.2-.08l1.14,2.39,4-5.81-7-.55Z"/></g></g></svg>