<svg xmlns="http://www.w3.org/2000/svg" viewBox="0 0 17.12 23.21"><defs><style>.cls-1{fill:#fff;}</style></defs><title>rrz0fB</title><g id="Layer_2" data-name="Layer 2"><g id="Layer_1-2" data-name="Layer 1"><g id="rrz0fB"><path class="cls-1" d="M14.5,17.32l-.81-.18a11.1,11.1,0,0,0,2.91-4c.09.39.2.78.28,1.17a7.34,7.34,0,0,1,.19,2.64,6.16,6.16,0,0,1-.77,2.24l-.45-.79a1.33,1.33,0,0,0-.12.16,6.7,6.7,0,0,1-3.45,2.77,23.15,23.15,0,0,0-2.25.93,15.82,15.82,0,0,0-1.51,1L8.28,23A8.4,8.4,0,0,0,5.8,21.67c-.5-.18-1-.37-1.49-.57a6.34,6.34,0,0,1-2.83-2.42l-.21-.3-.45.8a6.14,6.14,0,0,1-.67-1.7,7,7,0,0,1,.08-3.16c.09-.39.19-.79.31-1.19a10.71,10.71,0,0,0,2.89,4L3,17.23l-.42.09a5.63,5.63,0,0,0,.45.42,5.71,5.71,0,0,0,3.6,1.33.57.57,0,0,0,.67-.58,3.1,3.1,0,0,0,0-.43V10.24a4,4,0,0,0,0-.6.53.53,0,0,0-.57-.52C5.92,9.07,5.1,9,4.28,9a.23.23,0,0,0-.17.1,1.56,1.56,0,0,1-1.69.82A1.75,1.75,0,0,1,1.06,8.61,1.69,1.69,0,0,1,2.72,6.68a1.48,1.48,0,0,1,1.36.81.2.2,0,0,0,.21.13l2.62-.13c.48,0,.68-.23.7-.72,0-.28,0-.56,0-.85a.23.23,0,0,0-.12-.16A3,3,0,0,1,5.59,3.2,3,3,0,1,1,9.68,5.73c-.13.06-.19.12-.18.26s0,.55,0,.82a.62.62,0,0,0,.67.68l2.67.12A.28.28,0,0,0,13,7.49a1.54,1.54,0,0,1,1.79-.75,1.7,1.7,0,0,1,1.26,1.64,1.72,1.72,0,0,1-1.3,1.53,1.52,1.52,0,0,1-1.73-.73A.28.28,0,0,0,12.74,9l-2.26.1c-.46,0-.64.19-.69.64,0,.17,0,.34,0,.51V18a3.39,3.39,0,0,0,0,.45.57.57,0,0,0,.67.58,5.72,5.72,0,0,0,2.91-.84,10.63,10.63,0,0,0,1-.77A.94.94,0,0,0,14.5,17.32ZM8.56,1.62A1.34,1.34,0,0,0,7.2,3,1.36,1.36,0,1,0,8.56,1.62Z"/></g></g></g></svg>