<svg xmlns="http://www.w3.org/2000/svg" viewBox="0 0 29.34 13.77"><defs><style>.cls-1{fill:#fff;}</style></defs><title>Asset 22</title><g id="Layer_2" data-name="Layer 2"><g id="Layer_1-2" data-name="Layer 1"><path class="cls-1" d="M17.6,13.77a14.34,14.34,0,0,1-9.5-3.56l-.35-.29a1.09,1.09,0,0,0-1.6-.1C5,10.61,3.8,11.31,2.59,12a4.87,4.87,0,0,1-1.47.52,1.16,1.16,0,0,1-.95-.19,1.22,1.22,0,0,1,0-1A7.44,7.44,0,0,1,.91,9.84a5.12,5.12,0,0,0-.07-6A7.3,7.3,0,0,1,.11,2.34c-.33-.84.11-1.42,1-1.17A12.89,12.89,0,0,1,3.75,2.32,27.06,27.06,0,0,1,6.29,4.05.68.68,0,0,0,7.3,4,14.8,14.8,0,0,1,15,.21a14,14,0,0,1,13.67,5.2c.92,1.11.86,1.85-.05,3A13.77,13.77,0,0,1,17.6,13.77Zm6.06-8.6a.9.9,0,0,0,.88.93.89.89,0,0,0,.94-.88,1,1,0,0,0-.9-.94A.87.87,0,0,0,23.66,5.17Z"/></g></g></svg>