<svg xmlns="http://www.w3.org/2000/svg" viewBox="0 0 21.55 21.34"><defs><style>.cls-1{fill:#fff;}</style></defs><title>xSREMC</title><g id="Layer_2" data-name="Layer 2"><g id="Layer_1-2" data-name="Layer 1"><g id="xSREMC"><path class="cls-1" d="M21.55,18.39c-.58.57-1.15,1.15-1.73,1.73L18.7,21.2c-.09.09-.14.08-.23,0L15.28,18c-1.27-1.26-2.54-2.54-3.81-3.81l-.14-.09.82-.81L4.48,5.67l-.55.51C3.76,6.06,1.84,3.3,1.44,2.62a0,0,0,0,1,0,0L2.73,1.35a.17.17,0,0,1,.27,0L6.28,3.58c.13.09.14.1,0,.22s-.27.29-.41.44l0,0L13.53,12l.39-.4c.1-.1.21-.18.3-.28s.12-.06.19,0l1.14,1.11,5.89,5.88.11.09Z"/><path class="cls-1" d="M0,16.69l.09-.56A4.4,4.4,0,0,1,3.53,12.7a4.6,4.6,0,0,1,2.21.14.31.31,0,0,0,.36-.11l2.21-2.21.06,0L10.9,13l-.07.08L8.55,15.35a.19.19,0,0,0-.05.24,4.17,4.17,0,0,1-.34,3.55,4.16,4.16,0,0,1-3.29,2.17,4.42,4.42,0,0,1-1.66-.1l-.36-.13,3.05-3L3.33,15.49.26,18.58c-.08-.34-.15-.65-.21-.95,0-.1,0-.2,0-.3Z"/><path class="cls-1" d="M21.15,2.76c.07.31.16.59.2.88a4.43,4.43,0,0,1-3,4.84,4.15,4.15,0,0,1-1.57.17,4,4,0,0,1-1.23-.21.14.14,0,0,0-.17.05L13.85,10c-.18.19-.38.36-.57.55s-.12.07-.19,0L11.52,9.05c-.28-.28-.55-.56-.83-.83l0-.05.7-.69L12.88,6s.08-.09,0-.16a3.9,3.9,0,0,1-.22-1.73A4.09,4.09,0,0,1,14.3.93,3.78,3.78,0,0,1,16.18,0a8.93,8.93,0,0,1,1.37,0,2.58,2.58,0,0,1,.91.17l.12.05L15.52,3.31l2.54,2.53Z"/></g></g></g></svg>