<svg xmlns="http://www.w3.org/2000/svg" viewBox="0 0 23.57 18.84"><defs><style>.cls-1{fill:#fff;}</style></defs><title>YVAGOg</title><g id="Layer_2" data-name="Layer 2"><g id="Layer_1-2" data-name="Layer 1"><g id="YVAGOg"><path class="cls-1" d="M6.58,8.36C6.66,8.08,6.79,8,7,8s.32.12.41.4H9.58A1.4,1.4,0,0,1,10,7.06a1.8,1.8,0,0,1,1.36-.31V6.3c0-.26,0-.52,0-.78a.33.33,0,0,0-.11-.21L6.74,2A.39.39,0,0,0,6.53,2H5.26a.64.64,0,1,1,0-1.28h5.52c.14,0,.21,0,.26-.17a.77.77,0,0,1,.76-.5.8.8,0,0,1,.76.52c0,.13.11.15.23.15h5.48a1.19,1.19,0,0,1,.33,0A.64.64,0,0,1,18.38,2H17.06a.41.41,0,0,0-.25.08L12.29,5.3a.33.33,0,0,0-.11.22c0,.4,0,.8,0,1.23h.46A1.32,1.32,0,0,1,14,8.11v.24h2.17c0-.22.16-.39.42-.4s.31.12.4.41h1.72A4.44,4.44,0,0,1,23.14,12a4.89,4.89,0,0,1,.08.85c0,1.26,0-.53,0,.72v.2c.2.07.35.18.34.41a.41.41,0,0,1-.34.39v4.32H20.82V14.53c-.29-.07-.41-.19-.42-.4s.12-.34.42-.42v-.85a2,2,0,0,0-2.09-2.09H17a1.67,1.67,0,0,1-.17.26.39.39,0,0,1-.62-.16.21.21,0,0,0-.13-.1H14a2.72,2.72,0,0,1,0,.3,1.32,1.32,0,0,1-1.29,1.06H10.94a1.33,1.33,0,0,1-1.37-1.28v-.08h-2a.18.18,0,0,0-.2.13.34.34,0,0,1-.37.23.4.4,0,0,1-.37-.32,19.77,19.77,0,0,0-2.18,0,2,2,0,0,0-1.67,1.89c0,1.33,0-.38,0,.95a.43.43,0,0,1,0,.05c.32.11.42.22.41.44s-.15.32-.42.37v4.32H.36V14.53c-.22-.08-.37-.2-.36-.43a.39.39,0,0,1,.34-.37v-.19c0-1.25,0,.56,0-.69A4.44,4.44,0,0,1,3.78,8.48a5,5,0,0,1,1-.11C5.39,8.35,6,8.36,6.58,8.36Zm4.81-3.55V2H7.45Zm.79,0L16.12,2H12.18Z"/></g></g></g></svg>