<svg xmlns="http://www.w3.org/2000/svg" viewBox="0 0 22.1 19.9"><defs><style>.cls-1{fill:#fff;}</style></defs><title>9F0pmZ.tif</title><g id="Layer_2" data-name="Layer 2"><g id="Layer_1-2" data-name="Layer 1"><g id="_9F0pmZ.tif" data-name="9F0pmZ.tif"><path class="cls-1" d="M22.1,19v.18a1.12,1.12,0,0,1-1.18.73c-6.63,0-13.25,0-19.88,0-1,0-1.2-.26-.93-1.28C1,15.26,2,11.92,2.85,8.57a1.09,1.09,0,0,1,1.29-.93c1.12,0,2.24,0,3.42,0C6.14,4.76,6.42,2.55,8.32,1A4.05,4.05,0,0,1,13.54.92,6.17,6.17,0,0,1,15.18,3.3a4.81,4.81,0,0,1-.82,4.35c1.44,0,2.75,0,4.06,0a.93.93,0,0,1,1.07.83c.25,1.14.53,2.27.81,3.4ZM8.77,4.3A2.26,2.26,0,0,0,11,6.52a2.29,2.29,0,0,0,2.22-2.26,2.23,2.23,0,0,0-4.46,0Z"/></g></g></g></svg>