<svg xmlns="http://www.w3.org/2000/svg" viewBox="0 0 21.9 23.16"><defs><style>.cls-1{fill:#fff;}</style></defs><title>Asset 7</title><g id="Layer_2" data-name="Layer 2"><g id="Layer_1-2" data-name="Layer 1"><path class="cls-1" d="M21.71,8.56a.35.35,0,0,0-.69.13,9.82,9.82,0,0,1-3.48,9.5c-.12-.35-.25-.73-.4-1.13a8.82,8.82,0,0,0,2.92-5.89l-.48,0A8.25,8.25,0,0,1,17,16.58a27.56,27.56,0,0,0-1.78-3.91l-2.68-1.3a1.39,1.39,0,0,0,.27-.85,1.35,1.35,0,0,0-.36-.91L16.32,1s.21-.68-.23-.82c-.11,0-.4.21-.8.62A10.53,10.53,0,0,0,4,3a.36.36,0,0,0,0,.5.36.36,0,0,0,.26.11.33.33,0,0,0,.24-.1A9.83,9.83,0,0,1,14.77,1.32c-.22.25-.45.53-.69.82a8.87,8.87,0,0,0-7.15.76.35.35,0,0,0-.13.48.38.38,0,0,0,.31.18.41.41,0,0,0,.18-.05,8.15,8.15,0,0,1,6.31-.78A25.86,25.86,0,0,0,11.32,6l.22,3.19-.19,0a1.4,1.4,0,0,0-1.22.75l-9.52.95s-.7.15-.6.61c0,.11.37.23.89.37a10.55,10.55,0,0,0,7.41,8.82h.11a.36.36,0,0,0,.34-.25A.36.36,0,0,0,8.52,20a9.83,9.83,0,0,1-6.88-8l1,.19a9,9,0,0,0,4,5.88.45.45,0,0,0,.19.05.34.34,0,0,0,.3-.17.35.35,0,0,0-.11-.49,8.15,8.15,0,0,1-3.65-5.15,26.16,26.16,0,0,0,4,.37L10,10.92a1.41,1.41,0,0,0,.67.84l-.86,11.4h3.09L12.35,13l4.32,6a.35.35,0,0,0,.06.17.29.29,0,0,0,.15.12l.13.17s.48.52.83.22c.07-.07,0-.37-.09-.8A10.51,10.51,0,0,0,21.71,8.56Z"/></g></g></svg>