<svg xmlns="http://www.w3.org/2000/svg" viewBox="0 0 36.91 16.24"><defs><style>.cls-1{fill:#fff;}</style></defs><title>Asset 4</title><g id="Layer_2" data-name="Layer 2"><g id="Layer_1-2" data-name="Layer 1"><path class="cls-1" d="M0,13.8V13H6.46L4.65,10.15,2.83,11.31a5.18,5.18,0,0,1-.54-.84c0-.1.12-.37.26-.46C4,9,5.48,8.1,6.94,7.14c.58-.37.58-.37.2-.91C6,4.55,4.85,2.87,3.68,1.21,3.42.84,3.51.67,3.83.45s.51-.26.76.11C5.76,2.29,7,4,8.14,5.72l.32.44c.75-.49,1.49-1,2.21-1.46.07,0,0-.35-.06-.48C10,3.33,9.39,2.45,8.78,1.56c-.1-.14-.19-.29-.3-.46A3.53,3.53,0,0,1,8.73.82c.54-.42.59-.41,1,.14.6.87,1.22,1.73,1.81,2.62.22.33.39.36.72.14,1.47-1,3-1.93,4.45-2.89a.64.64,0,0,1,1,.53c0,.12-.14.27-.26.35-.4.28-.82.55-1.23.82,0,0,0,.06-.1.15l1.65,2.47.21.31c.65,1,.45.9,1.41.26l6.68-4.43.5-.32a2.55,2.55,0,0,0,1.87,1.1l-.57.43-15.59,11a1.56,1.56,0,0,1-.82.31c-3.7,0-7.39,0-11.09,0A3,3,0,0,1,0,13.8ZM11.75,6.6l2.4,3.53c.54-.36,1-.66,1.46-1a.48.48,0,0,0,.08-.47c-.64-1-1.3-2-2-2.94a.49.49,0,0,0-.46-.12C12.74,5.89,12.28,6.24,11.75,6.6Zm-.26,5.27c.5-.34,1-.64,1.42-1,.08-.06.08-.33,0-.44-.64-1-1.3-2-2-2.94a.47.47,0,0,0-.42-.14c-.48.28-.93.61-1.43,1Z"/><path class="cls-1" d="M27.6,10.53h9.31v.93H28c-.23,0-.6.07-.64.2a3.54,3.54,0,0,0-.14,1.13s.26.15.4.15H29.8c.33,0,.74-.05.72.46s-.4.42-.71.42H14.1c-.18,0-.37,0-.55,0l0-.14L32.74,0l.17.05A7.58,7.58,0,0,0,33,1.22a2.35,2.35,0,0,1-.88,2.26,15,15,0,0,0-4.14,6C27.83,9.8,27.73,10.11,27.6,10.53Z"/><path class="cls-1" d="M9.77,15.31h4.82c.34,0,.71,0,.73.42s-.36.51-.72.51H4.89c-.34,0-.7-.07-.7-.47s.35-.46.7-.46Z"/><path class="cls-1" d="M26.82,15.31c.67,0,1.35,0,2,0a.75.75,0,0,1,.54.41c.08.36-.23.49-.54.49H24.76c-.3,0-.58-.12-.56-.49s.3-.43.61-.43Z"/><path class="cls-1" d="M19.75,15.31h2c.29,0,.54.09.55.43s-.24.49-.55.49H17.69c-.3,0-.59-.12-.56-.49s.3-.43.61-.43Z"/><path class="cls-1" d="M31.78,9.19H30.46c-.31,0-.61-.14-.53-.49a.7.7,0,0,1,.52-.42,25,25,0,0,1,2.74,0c.19,0,.37.28.55.43-.18.16-.34.43-.54.46A11.16,11.16,0,0,1,31.78,9.19Z"/><path class="cls-1" d="M33.75,13.84a10.42,10.42,0,0,1-1.37,0c-.19,0-.36-.25-.53-.39.17-.16.34-.44.53-.45.89,0,1.8,0,2.7,0,.3,0,.57.15.5.46a.69.69,0,0,1-.5.4A9.84,9.84,0,0,1,33.75,13.84Z"/></g></g></svg>