<svg xmlns="http://www.w3.org/2000/svg" viewBox="0 0 25.44 25.41"><defs><style>.cls-1{fill:#fff;}</style></defs><title>Asset 15</title><g id="Layer_2" data-name="Layer 2"><g id="Layer_1-2" data-name="Layer 1"><path class="cls-1" d="M2.86.82A1.77,1.77,0,0,1,3.18.57,5.45,5.45,0,0,1,8.8,1a4,4,0,0,1,1.83,3.54A9.87,9.87,0,0,1,10.44,6a2,2,0,0,0,.61,1.84C12.8,9.55,14.53,11.3,16.27,13l7.18,7.18,1.35,1.35a2.26,2.26,0,1,1-3.22,3.16c-1-1-2-2-3.06-3.06Q13.15,16.3,7.77,10.94a1.84,1.84,0,0,0-2-.54,3.81,3.81,0,0,1-3.63-.63A5.26,5.26,0,0,1,.07,6C0,5.67-.1,5.3.15,5l.09-.09.42.26c.77.49,1.53,1,2.31,1.47A1.64,1.64,0,0,0,5,6.3a3.77,3.77,0,0,0,1.1-1.86,2,2,0,0,0-.83-2C4.52,2,3.78,1.42,3,.92Z"/></g></g></svg>